# xmcd
#
# Track frame offsets:
#	183
#	14818
#	27735
#	41520
#	53935
#	68010
#	82180
#	96325
#	110695
#	126558
#	140470
#	152378
#
# Disc length: 2199 seconds
#
# Revision: 0
# Processed by: cddbd v1.5PL3 Copyright (c) Steve Scherf et al.
# Submitted via: dBpowerAMP V4.0
#
DISCID=af08950c
DTITLE=Candee Land - Candee Land
DYEAR=1900
DGENRE=Country
TTITLE0=Strength Of My Weakness
TTITLE1=Same Ole Me
TTITLE2=Cowboy
TTITLE3=Take Back Those Old Love Letters
TTITLE4=Magic In The Two Step
TTITLE5=Darkside Of The Dancefloor
TTITLE6=One More Time
TTITLE7=After The Glitter Fades
TTITLE8=Leavin' On Your Mind
TTITLE9=Take It Or Leave It
TTITLE10=Is It Her Or Is It Me
TTITLE11=I Can't Seem To Get You Off My Mind
EXTD=
EXTT0=
EXTT1=
EXTT2=
EXTT3=
EXTT4=
EXTT5=
EXTT6=
EXTT7=
EXTT8=
EXTT9=
EXTT10=
EXTT11=
PLAYORDER=
